# xmcd
#
# Track frame offsets: 
#        175
#        23307
#        41737
#        74292
#        96802
#        119252
#        136607
#        153952
#        169495
#
# Disc length: 2530 seconds
#
# Revision: 3
# Processed by: cddbd v1.5.2PL0 Copyright (c) Steve Scherf et al.
# Submitted via: ExactAudioCopy v1.1
#
DISCID=6a09e009
DTITLE=Albert King - Albert
DYEAR=1976
DGENRE=Blues
TTITLE0=Guitar Man
TTITLE1=I'm Ready
TTITLE2=Ain't Nothing You Can Do
TTITLE3=I Don't Care What My Baby Do
TTITLE4=Change Of Pace
TTITLE5=My Babe
TTITLE6=Running Out Of Steam
TTITLE7=Rub My Back
TTITLE8=(Ain't It) A Real Good Sign
EXTD=
EXTT0=
EXTT1=
EXTT2=
EXTT3=
EXTT4=
EXTT5=
EXTT6=
EXTT7=
EXTT8=
PLAYORDER=
